<svg width="64" height="44" fill="none" xmlns="http://www.w3.org/2000/svg"><path d="M44.992 14.262H17.475c-.577 0-1.046.47-.996 1.024.603 6.584 6.979 11.766 14.754 11.766 7.775 0 14.15-5.182 14.753-11.766.052-.553-.417-1.024-.994-1.024Z" fill="#F63"/><path d="M26.265 4.408c-.307 0-.612-.132-.811-.386C24.449 2.75 22.539 1.96 20.47 1.96c-2.068 0-3.978.79-4.983 2.062-.34.431-.981.513-1.428.186a.954.954 0 0 1-.193-1.373C15.27 1.06 17.738 0 20.47 0c2.732 0 5.2 1.06 6.606 2.835a.956.956 0 0 1-.194 1.373 1.04 1.04 0 0 1-.618.2ZM47.788 4.408c-.307 0-.613-.132-.812-.386-1.005-1.271-2.915-2.062-4.983-2.062-2.068 0-3.977.79-4.983 2.062-.34.431-.98.513-1.427.186a.954.954 0 0 1-.194-1.373C36.792 1.06 39.261 0 41.993 0c2.733 0 5.2 1.06 6.606 2.835a.956.956 0 0 1-.193 1.373 1.04 1.04 0 0 1-.618.2ZM2.852 30.003l-.4 1.019c-.036.084-.164.118-.283.077a2.865 2.865 0 0 1-.847-.428 3.028 3.028 0 0 1-.694-.648 3.133 3.133 0 0 1-.54-1.122 3.049 3.049 0 0 1-.054-1.178c.061-.38.203-.746.422-1.097.222-.351.507-.65.864-.897a3.22 3.22 0 0 1 1.156-.507 3.218 3.218 0 0 1 1.217-.04c.4.064.78.202 1.145.418.369.215.683.498.942.843.166.222.305.503.413.838.112.335.168.648.166.941.002.118-.086.208-.183.211l-1.128.03c-.108 0-.197-.096-.197-.234a1.593 1.593 0 0 0-.072-.51 1.42 1.42 0 0 0-.209-.435 1.656 1.656 0 0 0-1.107-.664 1.669 1.669 0 0 0-1.259.288c-.38.264-.607.614-.677 1.056-.067.439.037.847.314 1.216.086.114.203.222.356.322.154.102.305.179.46.227.15.047.234.167.195.274ZM7.355 28.836c.093-.098.212-.102.312-.012l2.897 2.56c.102.089.106.203.013.3l-.652.68c-.099.104-.205.107-.313.013l-1.954-1.728-.685.716 1.483 1.312c.112.099.123.217.023.32l-.538.563c-.093.098-.218.096-.328 0L6.13 32.248l-.704.737 1.955 1.727c.137.122.149.28.031.4l-.61.638c-.091.095-.212.097-.313.008l-2.956-2.61c-.102-.09-.11-.2-.017-.299l3.839-4.013ZM13.62 37.257a1.514 1.514 0 0 1-.253.8c-.307.475-.705.747-1.195.818-.486.074-1.016-.059-1.588-.402l-2.012-1.207c-.093-.055-.11-.127-.054-.213l3.064-4.725c.056-.086.13-.102.222-.046l1.863 1.117c.545.327.886.706 1.024 1.14.137.433.06.878-.235 1.333-.236.365-.65.605-1.065.618.16.229.237.483.23.767Zm-2.334.099c.33.198.668.125.87-.184.197-.305.11-.618-.222-.815l-.845-.506-.648.998.845.507Zm.951-3.274-.547.843.698.42c.281.167.56.108.728-.151.168-.26.099-.525-.182-.693l-.697-.419ZM16.465 35.187c.052-.124.16-.169.288-.118l3.65 1.408c.129.05.175.154.123.278l-.357.857c-.054.13-.153.17-.289.118l-2.464-.95-.376.902 1.87.721c.14.054.194.161.14.292l-.296.709c-.052.123-.168.164-.307.11l-1.87-.72-.388.928 2.464.95c.175.069.242.21.177.364l-.337.805c-.05.12-.162.163-.29.113l-3.725-1.437c-.128-.05-.176-.15-.124-.274l2.11-5.056ZM23.978 37.345c.636.134 1.11.424 1.424.873.312.446.403.97.264 1.575-.136.598-.447 1.035-.925 1.312-.479.274-1.033.346-1.672.212l-.714-.15-.358 1.562c-.03.129-.128.191-.272.16l-1.046-.22c-.134-.028-.193-.123-.165-.252l1.215-5.32a.212.212 0 0 1 .26-.167l.527.11.53.113.932.192Zm-.674 2.665a.751.751 0 0 0 .564-.086c.17-.1.275-.25.322-.45a.65.65 0 0 0-.095-.54.705.705 0 0 0-.473-.31l-.653-.137-.317 1.387.652.136ZM31.277 38.131c.13.007.213.1.205.224L31.17 43.8c-.007.132-.09.209-.229.2l-1.068-.057c-.147-.007-.225-.093-.218-.226l.093-1.621-.621-.032-.989 1.607c-.087.136-.143.173-.264.166l-1.249-.066c-.134-.007-.201-.14-.128-.252l1.178-1.851c-.577-.372-.89-.997-.847-1.733.035-.614.264-1.097.69-1.446.427-.352.968-.508 1.62-.474l1.867.098.273.018ZM29.82 40.84l.084-1.462-.78-.041a.747.747 0 0 0-.546.172.685.685 0 0 0-.238.499.751.751 0 0 0 .179.544.716.716 0 0 0 .521.245l.78.043ZM37.886 37.553c.104-.013.164.034.177.138l.688 5.527c.013.103-.035.16-.137.173l-1.175.136c-.104.013-.164-.034-.177-.138l-.273-2.196-2.271.262.273 2.196c.013.104-.035.16-.137.173l-1.171.135c-.108.012-.168-.034-.18-.138l-.69-5.527c-.012-.104.036-.161.144-.174l1.17-.134c.105-.013.164.034.178.138l.25 2.017 2.272-.261-.252-2.018c-.013-.103.036-.16.138-.173l1.173-.136ZM39.798 38.977c.034-.413.142-.79.32-1.13.183-.343.434-.65.756-.919.32-.272.687-.472 1.104-.605.417-.132.836-.18 1.258-.145.425.03.817.134 1.171.306.357.17.68.412.959.725.282.308.491.66.629 1.061.182.532.216 1.064.102 1.59a2.902 2.902 0 0 1-.731 1.398c-.373.402-.838.689-1.395.866a3.333 3.333 0 0 1-2.436-.157 3.179 3.179 0 0 1-.955-.718 3.058 3.058 0 0 1-.624-1.06c-.14-.4-.19-.803-.158-1.212Zm2.42 1.683c.408.197.834.222 1.279.08.44-.14.763-.404.97-.794.204-.392.238-.795.09-1.22a1.564 1.564 0 0 0-.831-.933 1.665 1.665 0 0 0-1.272-.088c-.44.14-.767.408-.971.8-.205.392-.237.8-.09 1.226.146.426.42.732.825.929ZM49.947 32.774c.1-.056.225-.018.29.09l2.83 4.718c.06.1.027.23-.079.288l-.938.519a.218.218 0 0 1-.294-.079l-.955-1.591a1.72 1.72 0 0 1-.808.977c-.623.346-1.245.435-1.863.272-.62-.166-1.12-.565-1.5-1.199l-.858-1.432c-.062-.1-.034-.233.065-.286l.93-.516c.116-.064.252-.032.315.075l.856 1.429c.328.546.858.683 1.428.368.287-.159.462-.363.538-.613.076-.251.037-.509-.12-.77l-.86-1.436a.207.207 0 0 1 .074-.29l.949-.524ZM59.231 32.6c.144.034.213.163.105.256l-1.035.89a.286.286 0 0 1-.227.07l-2.686-.67-.642.551 1.485 1.599c.072.078.069.152-.01.218l-.887.764c-.082.07-.159.067-.231-.012l-3.853-4.147c-.07-.075-.065-.149.015-.219l.888-.764c.078-.066.154-.063.225.013l1.414 1.523.503-.432-.236-2.541c-.015-.154.033-.217.143-.312l1.026-.88c.115-.099.242-.024.255.136l.277 3.105 3.471.852ZM63.845 26.672c.144.034.201.136.108.265l-.683.934c-.067.092-.195.13-.318.1l-.815-.227-1.22 1.667.497.655a.26.26 0 0 1 .008.324l-.681.93c-.09.122-.207.117-.296-.009l-3.35-4.89c-.073-.114-.07-.245-.003-.336l.508-.694c.067-.092.201-.135.326-.104l5.92 1.385Zm-3.715 1.704.726-.993-1.878-.528 1.152 1.521Z" fill="#414141"/></svg>