<svg width="24" height="24" fill="none" xmlns="http://www.w3.org/2000/svg"><path d="M11.792 5.025a2.14 2.14 0 0 1 2.137 2.137 2.14 2.14 0 0 1-2.137 2.136 2.14 2.14 0 0 1-2.137-2.136 2.14 2.14 0 0 1 2.137-2.137Zm0 7.297a5.166 5.166 0 0 0 5.162-5.16A5.167 5.167 0 0 0 11.792 2 5.168 5.168 0 0 0 6.63 7.162a5.166 5.166 0 0 0 5.162 5.16Zm2.088 4.21a9.663 9.663 0 0 0 2.997-1.24 1.512 1.512 0 0 0-1.61-2.561 6.555 6.555 0 0 1-6.95 0 1.51 1.51 0 0 0-2.085.475 1.512 1.512 0 0 0 .474 2.085c.922.58 1.935 1 2.997 1.241l-2.886 2.886a1.512 1.512 0 0 0 2.14 2.139l2.834-2.836 2.837 2.836a1.509 1.509 0 0 0 2.137 0 1.507 1.507 0 0 0 0-2.138l-2.885-2.887Z" fill="#EE8208"/></svg>