<svg width="100" height="10" fill="none" xmlns="http://www.w3.org/2000/svg"><path fill-rule="evenodd" clip-rule="evenodd" d="m18.241.37-7.853 7.41c-.276.26-.07.69.329.69h7.689c.125 0 .227-.092.227-.205V.51c0-.184-.25-.274-.392-.14ZM8.245 2.22.392 9.63C.25 9.764 0 9.674 0 9.49V1.735c0-.113.102-.204.227-.204h7.689c.4 0 .605.43.33.69Zm41.57.2a5.237 5.237 0 0 0-.908-.343c-.612-.173-1.526-.346-2.758-.346-2.549 0-3.532.907-3.532 2.018 0 1.031.646 1.823 3.403 2.085 1.65.165 2.007.218 2.007.538 0 .409-.73.525-2.027.525-.79 0-1.446-.112-1.903-.232a5.199 5.199 0 0 1-.72-.23l-.984 1.284c.233.138.527.262.88.373.6.192 1.525.37 2.826.37 2.365 0 4.05-.56 4.05-2.09 0-1.263-1.014-1.792-3.722-2.063-1.237-.12-1.689-.218-1.689-.56 0-.338.551-.453 1.51-.453.76 0 1.402.102 1.859.204.268.058.511.129.725.205l.984-1.285Zm-18.083.418-4.055 3.88h4.055v1.566h-7.478v-.93l4.05-3.88h-3.95V1.908h7.378v.929Zm10.207 5.446h-2.256l-.63-1.032h-3.777l-.63 1.032H32.39l3.91-6.375h1.729l3.91 6.375ZM38.178 5.82l-1.014-1.658-1.013 1.658h2.027Zm22.476-.725c0 1.863-1.54 3.365-4.899 3.365s-4.899-1.502-4.899-3.365c0-1.863 1.54-3.365 4.899-3.365s4.899 1.502 4.899 3.365Zm-7.676 0c0 .907.596 1.8 2.777 1.8s2.777-.893 2.777-1.8-.596-1.8-2.777-1.8-2.777.893-2.777 1.8Zm9.988-3.187h-2.255l3.81 6.375h1.73l3.81-6.375h-2.256l-2.42 4.12-2.419-4.12Zm13.904.168c.352.103.656.214.909.343l-.984 1.285a5.925 5.925 0 0 0-.725-.205 8.551 8.551 0 0 0-1.858-.204c-.96 0-1.51.115-1.51.453 0 .342.451.44 1.689.56 2.707.271 3.72.8 3.72 2.063 0 1.53-1.683 2.09-4.048 2.09-1.302 0-2.226-.178-2.827-.37a4.265 4.265 0 0 1-.88-.373l.984-1.285c.209.085.447.165.72.231.457.12 1.113.232 1.903.232 1.297 0 2.027-.116 2.027-.525 0-.32-.357-.373-2.007-.538-2.757-.262-3.403-1.054-3.403-2.085 0-1.111.984-2.018 3.532-2.018 1.233 0 2.147.173 2.758.346Zm4.25 2.201v-2.37h-2.102v6.376h2.102V6.31l.78-.578 2.653 2.552h2.569L83.35 4.66l3.721-2.751h-2.748l-3.204 2.37Zm8.86 4.006H87.88V1.909h2.102v6.375Zm3.237-6.375h-2.479l3.577 3.845v2.53h2.107v-2.53l3.577-3.845h-2.48l-2.15 2.32-2.152-2.32Z" fill="#414141"/></svg>