<svg width="16" height="16" fill="none" xmlns="http://www.w3.org/2000/svg"><path d="M7.103 1.817a1 1 0 0 1 1.794 0l1.221 2.475a1 1 0 0 0 .753.548l2.732.397a1 1 0 0 1 .555 1.705L12.18 8.87a1 1 0 0 0-.288.885l.467 2.721a1 1 0 0 1-1.451 1.054l-2.444-1.284a1 1 0 0 0-.93 0L5.09 13.529a1 1 0 0 1-1.45-1.054l.466-2.72a1 1 0 0 0-.288-.886L1.843 6.942a1 1 0 0 1 .554-1.705l2.732-.397a1 1 0 0 0 .753-.548l1.221-2.475Z" fill="#BFBFBF"/><path d="M8 1.26v10.87a1 1 0 0 0-.466.115l-2.443 1.284a1 1 0 0 1-1.451-1.054l.467-2.72a1 1 0 0 0-.288-.886L1.842 6.942a1 1 0 0 1 .554-1.705l2.732-.397a1 1 0 0 0 .753-.548l1.222-2.475A.988.988 0 0 1 8 1.26Z" fill="#F63"/></svg>